<svg xmlns="http://www.w3.org/2000/svg" viewBox="969 1004.07 36 35.993"><defs><style>.a{fill:#fff;}</style></defs><g transform="translate(261 305)"><path class="a" d="M17.993,3.243c4.807,0,5.371.021,7.271.107a9.82,9.82,0,0,1,3.343.621,5.584,5.584,0,0,1,2.071,1.343,5.5,5.5,0,0,1,1.343,2.071,10,10,0,0,1,.621,3.343c.086,1.9.107,2.464.107,7.271s-.021,5.371-.107,7.271a9.82,9.82,0,0,1-.621,3.343,5.584,5.584,0,0,1-1.343,2.071,5.5,5.5,0,0,1-2.071,1.343,10,10,0,0,1-3.343.621c-1.9.086-2.464.107-7.271.107s-5.371-.021-7.271-.107a9.82,9.82,0,0,1-3.343-.621,5.584,5.584,0,0,1-2.071-1.343,5.5,5.5,0,0,1-1.343-2.071,10,10,0,0,1-.621-3.343c-.086-1.9-.107-2.464-.107-7.271s.021-5.371.107-7.271a9.82,9.82,0,0,1,.621-3.343A5.584,5.584,0,0,1,5.307,5.314,5.5,5.5,0,0,1,7.379,3.971a10,10,0,0,1,3.343-.621c1.9-.093,2.471-.107,7.271-.107m0-3.243c-4.886,0-5.5.021-7.421.107A13.189,13.189,0,0,0,6.207.943,8.77,8.77,0,0,0,3.021,3.021,8.925,8.925,0,0,0,.943,6.207a13.2,13.2,0,0,0-.836,4.371C.021,12.493,0,13.107,0,17.993s.021,5.5.107,7.421a13.275,13.275,0,0,0,.836,4.371,8.77,8.77,0,0,0,2.079,3.186A8.925,8.925,0,0,0,6.207,35.05a13.2,13.2,0,0,0,4.371.836c1.921.086,2.529.107,7.421.107s5.5-.021,7.421-.107a13.275,13.275,0,0,0,4.371-.836,8.77,8.77,0,0,0,3.186-2.079,8.925,8.925,0,0,0,2.079-3.186,13.2,13.2,0,0,0,.836-4.371c.086-1.921.107-2.529.107-7.421s-.021-5.5-.107-7.421A13.275,13.275,0,0,0,35.057,6.2a8.77,8.77,0,0,0-2.079-3.186A8.925,8.925,0,0,0,29.793.936,13.2,13.2,0,0,0,25.421.1C23.493.021,22.879,0,17.993,0Z" transform="translate(708 699.07)"/><path class="a" d="M131.743,122.6a9.243,9.243,0,1,0,9.243,9.243A9.244,9.244,0,0,0,131.743,122.6Zm0,15.236a6,6,0,1,1,6-6A6,6,0,0,1,131.743,137.836Z" transform="translate(594.25 585.227)"/><circle class="a" cx="2.157" cy="2.157" r="2.157" transform="translate(733.443 705.298)"/></g></svg>