<svg xmlns="http://www.w3.org/2000/svg" viewBox="769 175.991 382.25 433.064"><defs><style>.a{fill:#fff;}</style></defs><g transform="translate(7 672)"><path class="a" d="M104.1,97.381c-1.193,2.784-1.989,5.569-2.784,7.955-5.966,14.717-12.331,29.434-18.3,44.549-.4.4-1.193,1.193-1.591,1.193H69.1V76.3H81.033v52.5l.4-.4c6.364-15.513,12.331-31.423,18.695-46.936,1.989-5.171,1.989-5.171,7.955-5.171h7.955v74.779H103.705C104.1,133.578,104.1,115.679,104.1,97.381Z" transform="translate(968.55 -268.816)"/><path class="a" d="M44.549,151.377H32.219v-33.81H12.331v33.412H0V76.2H12.331v29.037H32.219V76.2H44.549Z" transform="translate(762.796 -269.113)"/><path class="a" d="M95.631,117.567v33.81H83.3V76.6H95.631v29.434c2.784,0,5.569.4,8.353,0,3.182-.4,5.171-2.784,5.966-5.966a101.754,101.754,0,0,0,1.989-10.74,7.374,7.374,0,0,1,.8-2.784c1.193-5.569,4.375-9.149,9.944-9.546,1.989-.4,3.58-.4,5.569-.8,1.193,2.784,1.989,5.966,3.182,8.751a10.119,10.119,0,0,1-2.784.8,7.664,7.664,0,0,0-5.966,5.966c-.8,3.58-1.989,7.16-2.784,10.74-1.193,3.978-3.182,7.16-7.16,9.149,5.569,2.784,6.762,7.558,8.353,12.728,1.193,3.978,2.387,7.955,3.182,11.535.8,3.978,3.182,5.966,6.762,6.762.8,0,1.193.4,2.387.8-.8,2.784-1.591,5.569-2.387,7.955,0,.4-1.193.8-1.591.8-2.387-.4-5.171-.4-7.558-1.193-4.773-.8-7.557-3.978-8.751-8.751s-1.989-9.944-2.784-14.717c-.4-1.591-.8-2.784-1.193-4.375-1.193-4.375-3.978-6.364-8.751-6.364A10.09,10.09,0,0,1,95.631,117.567Z" transform="translate(1010.832 -269.113)"/><path class="a" d="M44.011,76.4H81.4v74.779H69.07V87.935H55.546c-.4,3.978-.4,7.955-.8,11.933-1.193,11.933-1.989,23.468-3.182,35.4a9.067,9.067,0,0,1-1.193,4.375c-1.591,5.966-5.171,9.944-11.535,11.137-2.387.4-5.171,1.193-7.955,1.591-.8-3.182-1.989-6.364-2.784-9.546.8-.4,1.591-.4,2.387-.8,4.773-1.193,7.955-4.375,8.751-9.149A177.471,177.471,0,0,0,42.022,112.6c.8-11.137,1.193-22.672,1.591-33.81C43.613,77.991,44.011,77.2,44.011,76.4Z" transform="translate(846.467 -268.518)"/><path class="a" d="M34.181,76.3H47.705c.4,0,1.193.8,1.591,1.591l10.74,39.379L68.389,148.3c.4.8.4,1.989.8,3.182H55.661c-1.591-5.966-3.182-12.331-4.773-18.695H31.795a1.775,1.775,0,0,0-1.193,1.591c-1.591,5.171-2.784,10.342-3.978,15.115-.4,1.193-.8,1.989-2.387,1.989H13.1C19.862,126.418,27.022,101.359,34.181,76.3ZM48.1,122.043c-2.387-10.74-4.773-21.479-7.16-32.617-2.387,11.137-4.773,21.877-7.557,32.617Z" transform="translate(801.802 -268.816)"/><path class="a" d="M43.9,151.477V76.3H56.231v28.639h6.762c2.784.4,5.569.4,8.353,1.193,10.342,2.387,16.308,10.74,16.706,21.479.4,12.728-6.762,21.081-20.286,22.672C59.811,151.477,51.855,151.477,43.9,151.477Zm12.331-35v23.468c3.978,0,7.955.4,11.933-.8a9.217,9.217,0,0,0,5.569-5.966,15.686,15.686,0,0,0-.4-9.546,9.03,9.03,0,0,0-7.16-6.364C62.993,116.872,59.811,116.872,56.231,116.474Z" transform="translate(893.514 -268.816)"/><path class="a" d="M56.2,76.4H68.528v25.059c0,8.751,3.58,11.933,12.331,10.342,5.171-.8,5.171-.8,5.171-6.364V76.4H98.361v74.779H86.03v-30.23a71.714,71.714,0,0,1-7.557,1.989,108,108,0,0,1-11.535-.4c-5.171-1.193-8.353-4.773-9.944-9.546-.4-1.989-1.193-3.978-1.193-5.966C56.2,96.288,56.2,86.344,56.2,76.4Z" transform="translate(928.947 -268.518)"/><path class="a" d="M80.356,68.453A104.431,104.431,0,0,1,38.591,60.1L37,63.68c12.331,7.16,27.446,11.137,43.356,11.137,14.717,0,29.037-3.182,40.97-9.546l-1.989-3.978A106.01,106.01,0,0,1,80.356,68.453Z" transform="translate(872.968 -317.053)"/><path class="a" d="M204.355,3.182l-2.387-1.989L188.843,14.319l1.989,2.387c18.695,20.684,29.434,50.516,29.434,81.939,0,59.664-38.185,108.589-85.121,108.589S50.023,158.31,50.023,98.645c0-32.219,11.137-62.449,30.628-83.132l2.387-2.387L69.514,0,67.127,1.989C36.9,28.639,18.6,71.6,18.6,117.34c0,50.118,21.479,95.861,56.482,121.715l10.74-22.275,7.558,3.978a88.73,88.73,0,0,0,41.765,9.944,90.866,90.866,0,0,0,39.379-8.751l7.558-3.58,10.74,22.275c36.594-25.457,58.869-72,58.869-123.307C251.689,72.393,234.188,29.832,204.355,3.182Z" transform="translate(818.18 -496.009)"/><path class="a" d="M131.654,59.491A98.9,98.9,0,0,1,88.7,69.037c-17.1,0-33.014-3.978-45.743-11.137L34.6,77.788C48.124,87.732,67.614,94.1,88.7,94.1c19.888,0,38.185-5.569,51.709-14.319Z" transform="translate(865.822 -323.604)"/><path class="a" d="M49.1,103h4.375v15.115c.8-1.591,1.591-3.182,2.387-5.171,1.591-3.182,2.784-6.364,4.375-9.546,0-.4.4-.4.8-.4H65.01v21.877H60.635V109.762h0l-5.966,13.126c-.4.4-.4,1.193-.8,1.591l-.4.4H49.1Z" transform="translate(908.997 -189.313)"/><path class="a" d="M47.675,118.115c1.989-4.773,4.375-9.546,6.364-14.319.4-.4.4-.8,1.193-.8h3.58v21.877H54.437V109.762c-.8,1.989-1.989,4.375-2.784,6.364l-3.58,8.353c0,.4-.4.4-.8.4H43.3V103h4.375C47.675,108.171,47.675,113.342,47.675,118.115Z" transform="translate(891.727 -189.313)"/><path class="a" d="M11.3,103h9.149a5.191,5.191,0,0,1,5.171,4.773c.4,2.387-.8,4.375-3.182,5.569.4,0,.4,0,.4.4,2.784,1.193,3.978,3.182,3.58,6.364a5.3,5.3,0,0,1-5.569,4.773H10.9C11.3,117.717,11.3,110.557,11.3,103Zm4.375,18.3h3.58a2.066,2.066,0,0,0,1.591-.8,3.866,3.866,0,0,0,.4-3.58c-.4-.8-.8-1.193-1.591-1.193h-3.58A26.26,26.26,0,0,0,15.673,121.3Zm0-14.319v5.171h3.58a2.227,2.227,0,0,0,1.989-2.387c0-1.193-.8-2.387-1.591-2.387C18.457,106.58,16.866,106.978,15.673,106.978Z" transform="translate(795.252 -189.313)"/><path class="a" d="M20.875,115.628v9.944H16.5V103.7h4.375v8.353a11.013,11.013,0,0,0,3.58-.4c.8-.4,1.193-.8,1.193-1.591.4-1.193.8-2.784,1.193-3.978.4-1.989,1.193-2.387,3.182-2.784a2.391,2.391,0,0,0,1.591-.4.39.39,0,0,1,.4.4c.4.8.4,1.591.8,2.387a1.461,1.461,0,0,0-1.193.4c-.8.4-1.591.8-1.591,1.591-.4.8-.4,1.591-.8,2.387a5.06,5.06,0,0,1-2.784,3.58,5.286,5.286,0,0,1,3.182,3.978,25.347,25.347,0,0,1,.8,2.784,2.555,2.555,0,0,0,1.989,1.989c.4,0,.8.4,1.193.4-.4,1.193-.4,1.989-.8,3.182-1.193-.4-2.387-.4-3.58-.8a2.521,2.521,0,0,1-1.989-2.387c-.4-1.591-.8-2.784-1.193-4.375,0-.4-.4-.8-.4-1.193a2.521,2.521,0,0,0-2.387-1.989A5.911,5.911,0,0,1,20.875,115.628Z" transform="translate(811.926 -189.611)"/><path class="a" d="M16.9,105.784a1.461,1.461,0,0,0-1.193.4c-.8.4-1.591.8-1.591,1.591-.4.8-.4,1.989-.8,2.784a3.379,3.379,0,0,1-2.784,2.784h0a5.06,5.06,0,0,1,2.784,3.58,9.361,9.361,0,0,1,.8,3.182,2.555,2.555,0,0,0,1.989,1.989,1.389,1.389,0,0,1,.8.4c-.4,1.193-.4,1.989-.8,3.182-1.193-.4-2.387-.4-3.58-.8a2.521,2.521,0,0,1-1.989-2.387c-.4-1.591-.8-2.784-1.193-4.375,0-.4,0-.4-.4-.8-.8-1.591-1.193-1.989-3.182-1.989H4.175v9.944H-.2V103.4H4.175v8.751a7.754,7.754,0,0,0,3.182-.4c.8,0,1.193-.8,1.591-1.591.4-1.193.8-2.784,1.193-3.978.4-1.591,1.193-2.387,3.182-2.784a2.392,2.392,0,0,0,1.591-.4.39.39,0,0,1,.4.4A2.474,2.474,0,0,1,16.9,105.784Z" transform="translate(762.2 -189.313)"/><path class="a" d="M41.975,115.926v9.944H37.6V103.993h4.375v8.353a11.013,11.013,0,0,0,3.58-.4c.8-.4,1.193-.8,1.193-1.591.4-1.193.8-2.387,1.193-3.978.4-1.989,1.591-2.784,3.58-3.182a3.586,3.586,0,0,0,1.989-.4c.4.8.4,1.989.8,2.784a1.389,1.389,0,0,0-.8.4c-1.193,0-1.591.8-1.989,1.989a25.349,25.349,0,0,0-.8,2.784,3.379,3.379,0,0,1-2.784,2.784,1.389,1.389,0,0,1,.8.4,4.6,4.6,0,0,1,1.989,2.784,9.361,9.361,0,0,1,.8,3.182,3.586,3.586,0,0,0,2.387,2.387c.4,0,.4,0,.8.4-.4,1.193-.4,1.989-.8,3.182-1.193-.4-2.387-.4-3.58-.8a2.521,2.521,0,0,1-1.989-2.387c-.4-1.591-.8-2.784-1.193-4.375v-.8c-.4-1.989-1.193-2.387-3.182-2.387A2.19,2.19,0,0,1,41.975,115.926Z" transform="translate(874.754 -189.908)"/><path class="a" d="M40.295,125.175H35.919l-.4-.4c-.4-1.591-.8-2.784-1.193-4.375,0-.4-.4-.4-.8-.4H27.964c-.4,0-.4,0-.8.4l-1.193,4.773H21.6l1.193-3.58,5.966-17.9a.855.855,0,0,1,.8-.8h3.58c.4,0,.4,0,.4.4,1.989,7.558,4.375,14.717,6.762,21.877Zm-7.557-8.751c-.8-2.784-1.193-5.569-1.989-8.353a63.581,63.581,0,0,0-1.989,8.353Z" transform="translate(827.112 -189.611)"/><path class="a" d="M24.39,125.175H19.617c-.4-1.591-1.193-3.58-1.591-5.171H12.855c-1.591,0-1.591,0-1.989,1.591a27.408,27.408,0,0,1-1.193,3.182l-.4.4H4.9c.4-1.591,1.193-3.182,1.591-4.773,1.989-5.569,3.58-11.137,5.569-16.706a.855.855,0,0,1,.8-.8h3.58c.4,0,.8,0,.8.4,1.989,6.364,3.978,12.331,5.966,18.695A13.466,13.466,0,0,0,24.39,125.175Zm-9.546-17.1a63.58,63.58,0,0,0-1.989,8.353h4.375C16.435,113.64,15.64,111.253,14.844,108.071Z" transform="translate(777.386 -189.611)"/><path class="a" d="M38.137,113.267c.4,0,.4,0,.8.4a4.771,4.771,0,0,1,3.182,5.966,5.531,5.531,0,0,1-3.978,4.773,12.387,12.387,0,0,1-9.944-.4c-.4,0-.4-.4-.8-.4a.39.39,0,0,1-.4-.4c.8-.8,1.193-1.989,1.989-2.784l3.58,1.193h2.784a3.488,3.488,0,0,0,2.387-2.784q.6-3.58-3.58-3.58H31.773v-3.182h3.58c1.193-.4,1.591-.8,1.591-1.989h0c.4-1.989-.8-3.58-3.182-3.58a6.72,6.72,0,0,0-3.978,1.193c-.8-.8-1.193-1.989-1.989-2.784a14.13,14.13,0,0,1,3.58-1.591,15.066,15.066,0,0,1,5.966,0,5.7,5.7,0,0,1,3.978,7.955A6.276,6.276,0,0,1,38.137,113.267Z" transform="translate(843.192 -189.238)"/><path class="a" d="M48.052,123.371a9.366,9.366,0,0,1-3.978,1.989,8.135,8.135,0,0,1-4.375,0,9.018,9.018,0,0,1-6.364-5.569,13.057,13.057,0,0,1,.8-11.535c2.387-5.171,7.955-6.364,12.728-4.375.4.4.8.4,1.193.8a16.839,16.839,0,0,1-1.989,2.784,7.375,7.375,0,0,0-2.784-.8,4.558,4.558,0,0,0-5.171,2.784,15.461,15.461,0,0,0-.8,5.966,8.759,8.759,0,0,0,.4,3.182c.8,4.375,5.171,4.773,7.557,3.182.4,0,.4-.4.8-.4Z" transform="translate(859.131 -189.398)"/><path class="a" d="M60.142,102.528c-.4,2.387-2.387,3.58-5.171,3.58s-4.773-1.591-5.171-3.58c.8-.4,1.193-.4,1.989-.8h.4a3.845,3.845,0,0,0,5.569,0s.4-.4.4,0C58.949,101.732,59.346,102.13,60.142,102.528Z" transform="translate(911.081 -193.614)"/><path class="a" d="M75.4,114.237c0-3.182.8-5.966,2.784-7.955,1.989-2.387,4.773-3.182,7.955-3.182,5.171.4,7.955,4.375,8.353,8.751A15.357,15.357,0,0,1,93.3,120.2c-1.193,2.784-3.182,4.773-6.364,5.171s-6.364,0-8.751-2.387a12.929,12.929,0,0,1-2.784-6.762Zm13.524-4.773a3.821,3.821,0,0,0-3.58-2.784c-1.989,0-3.58.8-3.978,2.387,0,.4-.4.8-.4,1.193a21.628,21.628,0,0,0,0,7.16,17.228,17.228,0,0,0,.4,1.989,3.993,3.993,0,0,0,3.978,2.387,3.822,3.822,0,0,0,3.58-2.387C89.719,117.817,89.719,111.055,88.924,109.464Z" transform="translate(987.309 -189.015)"/><path class="a" d="M96.375,125.077H92V103.2h4.375v8.353h6.364V103.2h4.375v21.877H102.74v-9.546H96.375Z" transform="translate(1036.738 -188.717)"/><path class="a" d="M86.1,125.077c1.193-3.182,1.989-6.364,3.182-9.149,1.193-3.978,2.784-7.955,3.978-11.933a.855.855,0,0,1,.8-.8h3.58c.4,0,.4,0,.4.4,2.387,7.16,4.375,14.319,6.762,21.081v.4h-3.182c-1.591,0-1.591,0-1.989-1.591a9.361,9.361,0,0,1-.8-3.182c0-.4-.4-.4-.8-.4H92.464c-.4,0-.4,0-.8.4-.4,1.591-.8,2.784-1.193,4.375,0,.4-.4.4-.8.4Zm7.16-9.149h4.375c-.8-2.784-1.193-5.569-1.989-8.353C94.453,110.757,94.055,113.542,93.26,115.928Z" transform="translate(1019.169 -188.717)"/><path class="a" d="M81.8,103.2h8.353a6.515,6.515,0,0,1,6.762,5.966c.4,3.58-1.591,6.762-4.773,7.558a6.769,6.769,0,0,1-2.784.4H86.573v7.955H82.2C81.8,117.519,81.8,110.36,81.8,103.2Zm4.375,9.944h3.58c1.193,0,1.591-.4,1.989-1.591a5.519,5.519,0,0,0,0-3.58c-.4-.8-.8-1.591-1.591-1.591h-3.58A40.9,40.9,0,0,0,86.175,113.144Z" transform="translate(1006.366 -188.717)"/><path class="a" d="M61.075,117.022v7.955H56.7V103.1h8.353a6.148,6.148,0,0,1,6.364,5.569,7.207,7.207,0,0,1-4.773,7.955,6.769,6.769,0,0,1-2.784.4Zm0-3.58h3.978c.4,0,.4,0,.8-.4a3.845,3.845,0,0,0,0-5.569l-.4-.4c-1.193-.4-2.784,0-3.978-.4A40.9,40.9,0,0,0,61.075,113.442Z" transform="translate(931.627 -189.015)"/><path class="a" d="M73.931,103.2c0,1.193-.4,2.387-.4,3.58H65.975v5.171h5.966v3.58H65.975V121.5h8.353v3.978H61.6V103.6C65.578,103.2,69.555,103.2,73.931,103.2Z" transform="translate(946.218 -188.717)"/><path class="a" d="M79.884,120.787c.8.8,1.193,1.989,1.989,2.784A7.579,7.579,0,0,1,77.9,125.56a9.7,9.7,0,0,1-4.773,0,9.018,9.018,0,0,1-6.364-5.569,14.5,14.5,0,0,1,.4-11.535c2.387-5.171,7.955-6.364,12.728-4.375.4,0,.8.4,1.193.8a16.84,16.84,0,0,1-1.989,2.784,7.375,7.375,0,0,0-2.784-.8,4.558,4.558,0,0,0-5.171,2.784,15.461,15.461,0,0,0-.8,5.966,6.769,6.769,0,0,0,.4,2.784c.8,4.773,5.171,4.773,7.955,3.182C79.487,120.787,79.487,120.787,79.884,120.787Z" transform="translate(958.561 -188.803)"/><path class="a" d="M80.346,125.077H75.971v-18.3H70.8V103.2H86.711c-.4,1.193-.4,2.387-.8,3.58H80.744C80.346,112.746,80.346,118.713,80.346,125.077Z" transform="translate(973.612 -188.717)"/></g></svg>