<svg xmlns="http://www.w3.org/2000/svg" viewBox="969 1004.07 36 35.993"><defs><style>.a{fill:#fff}</style></defs><g transform="translate(261 305)"><path class="a" d="M725.993 702.313c4.807 0 5.371.021 7.271.107a9.82 9.82 0 0 1 3.343.621 5.584 5.584 0 0 1 2.071 1.343 5.5 5.5 0 0 1 1.343 2.071 10 10 0 0 1 .621 3.343c.086 1.9.107 2.464.107 7.271s-.021 5.371-.107 7.271a9.82 9.82 0 0 1-.621 3.343 5.584 5.584 0 0 1-1.343 2.071 5.5 5.5 0 0 1-2.071 1.343 10 10 0 0 1-3.343.621c-1.9.086-2.464.107-7.271.107s-5.371-.021-7.271-.107a9.82 9.82 0 0 1-3.343-.621 5.584 5.584 0 0 1-2.071-1.343 5.5 5.5 0 0 1-1.343-2.071 10 10 0 0 1-.621-3.343c-.086-1.9-.107-2.464-.107-7.271s.021-5.371.107-7.271a9.82 9.82 0 0 1 .621-3.343 5.584 5.584 0 0 1 1.342-2.071 5.5 5.5 0 0 1 2.072-1.343 10 10 0 0 1 3.343-.621c1.9-.093 2.471-.107 7.271-.107m0-3.243c-4.886 0-5.5.021-7.421.107a13.189 13.189 0 0 0-4.365.836 8.77 8.77 0 0 0-3.186 2.078 8.925 8.925 0 0 0-2.078 3.186 13.2 13.2 0 0 0-.836 4.371c-.086 1.915-.107 2.529-.107 7.415s.021 5.5.107 7.421a13.275 13.275 0 0 0 .836 4.371 8.77 8.77 0 0 0 2.079 3.186 8.925 8.925 0 0 0 3.185 2.079 13.2 13.2 0 0 0 4.371.836c1.921.086 2.529.107 7.421.107s5.5-.021 7.421-.107a13.275 13.275 0 0 0 4.371-.836 8.77 8.77 0 0 0 3.186-2.079 8.925 8.925 0 0 0 2.079-3.186 13.2 13.2 0 0 0 .836-4.371c.086-1.921.107-2.529.107-7.421s-.021-5.5-.107-7.421a13.275 13.275 0 0 0-.835-4.372 8.77 8.77 0 0 0-2.079-3.186 8.925 8.925 0 0 0-3.185-2.078 13.2 13.2 0 0 0-4.372-.836c-1.928-.079-2.542-.1-7.428-.1z"/><path class="a" d="M725.993 707.827a9.243 9.243 0 1 0 9.243 9.243 9.244 9.244 0 0 0-9.243-9.243zm0 15.236a6 6 0 1 1 6-6 6 6 0 0 1-6 6z"/><circle class="a" cx="2.157" cy="2.157" r="2.157" transform="translate(733.443 705.298)"/></g></svg>