<svg xmlns="http://www.w3.org/2000/svg" viewBox="769 175.991 382.25 433.064"><defs><style>.a{fill:#fff}</style></defs><path class="a" d="M1079.65 500.565c-1.193 2.784-1.989 5.569-2.784 7.955-5.966 14.717-12.331 29.434-18.3 44.549-.4.4-1.193 1.193-1.591 1.193h-12.325v-74.778h11.933v52.5l.4-.4c6.364-15.513 12.331-31.423 18.695-46.936 1.989-5.171 1.989-5.171 7.955-5.171h7.955v74.779h-12.333c.395-17.494.395-35.393.395-53.691zm-265.305 53.699h-12.33v-33.81h-19.888v33.412h-12.331v-74.779h12.331v29.037h19.888v-29.037h12.33zm299.118-33.81v33.81h-12.331v-74.777h12.331v29.434c2.784 0 5.569.4 8.353 0 3.182-.4 5.171-2.784 5.966-5.966a101.754 101.754 0 0 0 1.989-10.74 7.374 7.374 0 0 1 .8-2.784c1.193-5.569 4.375-9.149 9.944-9.546 1.989-.4 3.58-.4 5.569-.8 1.193 2.784 1.989 5.966 3.182 8.751a10.119 10.119 0 0 1-2.784.8 7.664 7.664 0 0 0-5.966 5.966c-.8 3.58-1.989 7.16-2.784 10.74-1.193 3.978-3.182 7.16-7.16 9.149 5.569 2.784 6.762 7.558 8.353 12.728 1.193 3.978 2.387 7.955 3.182 11.535.8 3.978 3.182 5.966 6.762 6.762.8 0 1.193.4 2.387.8-.8 2.784-1.591 5.569-2.387 7.955 0 .4-1.193.8-1.591.8-2.387-.4-5.171-.4-7.558-1.193-4.773-.8-7.557-3.978-8.751-8.751s-1.989-9.944-2.784-14.717c-.4-1.591-.8-2.784-1.193-4.375-1.193-4.375-3.978-6.364-8.751-6.364a10.09 10.09 0 0 1-4.778.783zm-215.985-40.572h37.389v74.779h-12.33v-63.244h-13.524c-.4 3.978-.4 7.955-.8 11.933-1.193 11.933-1.989 23.468-3.182 35.4a9.067 9.067 0 0 1-1.193 4.375c-1.591 5.966-5.171 9.944-11.535 11.137-2.387.4-5.171 1.193-7.955 1.591-.8-3.182-1.989-6.364-2.784-9.546.8-.4 1.591-.4 2.387-.8 4.773-1.193 7.955-4.375 8.751-9.149a177.471 177.471 0 0 0 2.787-20.276c.8-11.137 1.193-22.672 1.591-33.81 0-.799.398-1.59.398-2.39zm-54.495-.398h13.524c.4 0 1.193.8 1.591 1.591l10.74 39.379 8.353 31.03c.4.8.4 1.989.8 3.182h-13.528c-1.591-5.966-3.182-12.331-4.773-18.695h-19.093a1.775 1.775 0 0 0-1.193 1.591c-1.591 5.171-2.784 10.342-3.978 15.115-.4 1.193-.8 1.989-2.387 1.989h-11.137c6.762-25.064 13.922-50.123 21.081-75.182zm13.919 45.743c-2.387-10.74-4.773-21.479-7.16-32.617-2.387 11.137-4.773 21.877-7.557 32.617zm87.512 29.434v-75.177h12.331v28.639h6.762c2.784.4 5.569.4 8.353 1.193 10.342 2.387 16.308 10.74 16.706 21.479.4 12.728-6.762 21.081-20.286 22.672-7.955 1.194-15.911 1.194-23.866 1.194zm12.331-35v23.468c3.978 0 7.955.4 11.933-.8a9.217 9.217 0 0 0 5.569-5.966 15.686 15.686 0 0 0-.4-9.546 9.03 9.03 0 0 0-7.16-6.364c-3.18-.397-6.362-.397-9.942-.795zm35.402-39.779h12.328v25.059c0 8.751 3.58 11.933 12.331 10.342 5.171-.8 5.171-.8 5.171-6.364v-29.037h12.331v74.779h-12.331v-30.23a71.714 71.714 0 0 1-7.557 1.989 108 108 0 0 1-11.535-.4c-5.171-1.193-8.353-4.773-9.944-9.546-.4-1.989-1.193-3.978-1.193-5.966.399-10.738.399-20.682.399-30.626zM960.324 423.4a104.431 104.431 0 0 1-41.765-8.353l-1.591 3.58c12.331 7.16 27.446 11.137 43.356 11.137 14.717 0 29.037-3.182 40.97-9.546l-1.989-3.978a106.01 106.01 0 0 1-38.981 7.16z"/><path class="a" d="M1029.535 179.173l-2.387-1.989-13.125 13.126 1.989 2.387c18.695 20.684 29.434 50.516 29.434 81.939 0 59.664-38.185 108.589-85.121 108.589s-85.122-48.924-85.122-108.589c0-32.219 11.137-62.449 30.628-83.132l2.387-2.387-13.524-13.126-2.387 1.989c-30.227 26.65-48.527 69.611-48.527 115.351 0 50.118 21.479 95.861 56.482 121.715l10.74-22.275 7.558 3.978a88.73 88.73 0 0 0 41.765 9.944 90.866 90.866 0 0 0 39.379-8.751l7.558-3.58 10.74 22.275c36.594-25.457 58.869-72 58.869-123.307-.002-44.946-17.503-87.507-47.336-114.157z"/><path class="a" d="M1004.476 407.887a98.9 98.9 0 0 1-42.954 9.546c-17.1 0-33.014-3.978-45.743-11.137l-8.357 19.888c13.524 9.944 33.014 16.312 54.1 16.312 19.888 0 38.185-5.569 51.709-14.319zm-39.379 177.8h4.375v15.115c.8-1.591 1.591-3.182 2.387-5.171 1.591-3.182 2.784-6.364 4.375-9.546 0-.4.4-.4.8-.4h3.973v21.877h-4.375v-15.113l-5.966 13.126c-.4.4-.4 1.193-.8 1.591l-.4.4h-4.369zm-18.695 15.115c1.989-4.773 4.375-9.546 6.364-14.319.4-.4.4-.8 1.193-.8h3.58v21.877h-4.375v-15.111c-.8 1.989-1.989 4.375-2.784 6.364l-3.58 8.353c0 .4-.4.4-.8.4h-3.973v-21.879h4.375v15.115zm-132.85-15.115h9.149a5.191 5.191 0 0 1 5.171 4.773c.4 2.387-.8 4.375-3.182 5.569.4 0 .4 0 .4.4 2.784 1.193 3.978 3.182 3.58 6.364a5.3 5.3 0 0 1-5.569 4.773h-9.949c.4-7.162.4-14.322.4-21.879zm4.375 18.3h3.58a2.066 2.066 0 0 0 1.591-.8 3.866 3.866 0 0 0 .4-3.58c-.4-.8-.8-1.193-1.591-1.193h-3.58a26.26 26.26 0 0 0-.402 5.573zm0-14.319v5.171h3.58a2.227 2.227 0 0 0 1.989-2.387c0-1.193-.8-2.387-1.591-2.387-1.196-.798-2.787-.4-3.98-.4zm21.874 8.349v9.944h-4.375v-21.872h4.375v8.353a11.013 11.013 0 0 0 3.58-.4c.8-.4 1.193-.8 1.193-1.591.4-1.193.8-2.784 1.193-3.978.4-1.989 1.193-2.387 3.182-2.784a2.391 2.391 0 0 0 1.591-.4.39.39 0 0 1 .4.4c.4.8.4 1.591.8 2.387a1.461 1.461 0 0 0-1.193.4c-.8.4-1.591.8-1.591 1.591-.4.8-.4 1.591-.8 2.387a5.06 5.06 0 0 1-2.784 3.58 5.286 5.286 0 0 1 3.182 3.978 25.347 25.347 0 0 1 .8 2.784 2.555 2.555 0 0 0 1.989 1.989c.4 0 .8.4 1.193.4-.4 1.193-.4 1.989-.8 3.182-1.193-.4-2.387-.4-3.58-.8a2.521 2.521 0 0 1-1.989-2.387c-.4-1.591-.8-2.784-1.193-4.375 0-.4-.4-.8-.4-1.193a2.521 2.521 0 0 0-2.387-1.989 5.911 5.911 0 0 1-2.386.394zm-53.701-9.546a1.461 1.461 0 0 0-1.193.4c-.8.4-1.591.8-1.591 1.591-.4.8-.4 1.989-.8 2.784a3.379 3.379 0 0 1-2.784 2.784 5.06 5.06 0 0 1 2.784 3.58 9.361 9.361 0 0 1 .8 3.182 2.555 2.555 0 0 0 1.989 1.989 1.389 1.389 0 0 1 .8.4c-.4 1.193-.4 1.989-.8 3.182-1.193-.4-2.387-.4-3.58-.8a2.521 2.521 0 0 1-1.989-2.387c-.4-1.591-.8-2.784-1.193-4.375 0-.4 0-.4-.4-.8-.8-1.591-1.193-1.989-3.182-1.989h-1.586v9.944H769v-21.869h4.375v8.751a7.754 7.754 0 0 0 3.182-.4c.8 0 1.193-.8 1.591-1.591.4-1.193.8-2.784 1.193-3.978.4-1.591 1.193-2.387 3.182-2.784a2.392 2.392 0 0 0 1.591-.4.39.39 0 0 1 .4.4 2.474 2.474 0 0 1 1.586 2.386zm137.629 9.547v9.944h-4.375v-21.877h4.375v8.353a11.013 11.013 0 0 0 3.58-.4c.8-.4 1.193-.8 1.193-1.591.4-1.193.8-2.387 1.193-3.978.4-1.989 1.591-2.784 3.58-3.182a3.586 3.586 0 0 0 1.989-.4c.4.8.4 1.989.8 2.784a1.389 1.389 0 0 0-.8.4c-1.193 0-1.591.8-1.989 1.989a25.349 25.349 0 0 0-.8 2.784 3.379 3.379 0 0 1-2.784 2.784 1.389 1.389 0 0 1 .8.4 4.6 4.6 0 0 1 1.989 2.784 9.361 9.361 0 0 1 .8 3.182 3.586 3.586 0 0 0 2.387 2.387c.4 0 .4 0 .8.4-.4 1.193-.4 1.989-.8 3.182-1.193-.4-2.387-.4-3.58-.8a2.521 2.521 0 0 1-1.989-2.387c-.4-1.591-.8-2.784-1.193-4.375v-.8c-.4-1.989-1.193-2.387-3.182-2.387a2.19 2.19 0 0 1-1.994.804zm-49.322 9.546h-4.376l-.4-.4c-.4-1.591-.8-2.784-1.193-4.375 0-.4-.4-.4-.8-.4h-5.562c-.4 0-.4 0-.8.4l-1.193 4.773h-4.371l1.193-3.58 5.966-17.9a.855.855 0 0 1 .8-.8h3.58c.4 0 .4 0 .4.4 1.989 7.558 4.375 14.717 6.762 21.877zm-7.557-8.751c-.8-2.784-1.193-5.569-1.989-8.353a63.581 63.581 0 0 0-1.989 8.353zm-58.074 8.751h-4.773c-.4-1.591-1.193-3.58-1.591-5.171h-5.171c-1.591 0-1.591 0-1.989 1.591a27.408 27.408 0 0 1-1.193 3.182l-.4.4h-4.373c.4-1.591 1.193-3.182 1.591-4.773 1.989-5.569 3.58-11.137 5.569-16.706a.855.855 0 0 1 .8-.8h3.58c.4 0 .8 0 .8.4 1.989 6.364 3.978 12.331 5.966 18.695a13.466 13.466 0 0 0 1.184 3.182zm-9.546-17.1a63.58 63.58 0 0 0-1.989 8.353h4.375c-.795-2.788-1.59-5.175-2.386-8.357zm89.099 5.565c.4 0 .4 0 .8.4a4.771 4.771 0 0 1 3.182 5.966 5.531 5.531 0 0 1-3.978 4.773 12.387 12.387 0 0 1-9.944-.4c-.4 0-.4-.4-.8-.4a.39.39 0 0 1-.4-.4c.8-.8 1.193-1.989 1.989-2.784l3.58 1.193h2.784a3.488 3.488 0 0 0 2.387-2.784q.6-3.58-3.58-3.58h-2.384v-3.182h3.58c1.193-.4 1.591-.8 1.591-1.989.4-1.989-.8-3.58-3.182-3.58a6.72 6.72 0 0 0-3.978 1.193c-.8-.8-1.193-1.989-1.989-2.784a14.13 14.13 0 0 1 3.58-1.591 15.066 15.066 0 0 1 5.966 0 5.7 5.7 0 0 1 3.978 7.955 6.276 6.276 0 0 1-3.182 1.994zm25.854 9.944a9.366 9.366 0 0 1-3.978 1.989 8.135 8.135 0 0 1-4.375 0 9.018 9.018 0 0 1-6.364-5.569 13.057 13.057 0 0 1 .8-11.535c2.387-5.171 7.955-6.364 12.728-4.375.4.4.8.4 1.193.8a16.839 16.839 0 0 1-1.989 2.784 7.375 7.375 0 0 0-2.784-.8 4.558 4.558 0 0 0-5.171 2.784 15.461 15.461 0 0 0-.8 5.966 8.759 8.759 0 0 0 .4 3.182c.8 4.375 5.171 4.773 7.557 3.182.4 0 .4-.4.8-.4zm64.04-25.059c-.4 2.387-2.387 3.58-5.171 3.58s-4.773-1.591-5.171-3.58c.8-.4 1.193-.4 1.989-.8h.4a3.845 3.845 0 0 0 5.569 0s.4-.4.4 0c.791.004 1.188.402 1.984.8zm91.486 16.308c0-3.182.8-5.966 2.784-7.955 1.989-2.387 4.773-3.182 7.955-3.182 5.171.4 7.955 4.375 8.353 8.751a15.357 15.357 0 0 1-1.192 8.349c-1.193 2.784-3.182 4.773-6.364 5.171s-6.364 0-8.751-2.387a12.929 12.929 0 0 1-2.784-6.762zm13.524-4.773a3.821 3.821 0 0 0-3.58-2.784c-1.989 0-3.58.8-3.978 2.387 0 .4-.4.8-.4 1.193a21.628 21.628 0 0 0 0 7.16 17.228 17.228 0 0 0 .4 1.989 3.993 3.993 0 0 0 3.978 2.387 3.822 3.822 0 0 0 3.58-2.387c.795-1.592.795-8.354 0-9.945zm56.88 15.911h-4.375v-21.877h4.375v8.353h6.364v-8.353h4.375v21.877h-4.374v-9.546h-6.365zm-27.844 0c1.193-3.182 1.989-6.364 3.182-9.149 1.193-3.978 2.784-7.955 3.978-11.933a.855.855 0 0 1 .8-.8h3.58c.4 0 .4 0 .4.4 2.387 7.16 4.375 14.319 6.762 21.081v.4h-3.182c-1.591 0-1.591 0-1.989-1.591a9.361 9.361 0 0 1-.8-3.182c0-.4-.4-.4-.8-.4h-5.567c-.4 0-.4 0-.8.4-.4 1.591-.8 2.784-1.193 4.375 0 .4-.4.4-.8.4zm7.16-9.149h4.375c-.8-2.784-1.193-5.569-1.989-8.353-1.193 3.182-1.591 5.967-2.386 8.353zm-24.263-12.728h8.353a6.515 6.515 0 0 1 6.762 5.966c.4 3.58-1.591 6.762-4.773 7.558a6.769 6.769 0 0 1-2.784.4h-2.785v7.955h-4.373c-.4-7.56-.4-14.719-.4-21.879zm4.375 9.944h3.58c1.193 0 1.591-.4 1.989-1.591a5.519 5.519 0 0 0 0-3.58c-.4-.8-.8-1.591-1.591-1.591h-3.58a40.9 40.9 0 0 0-.398 6.762zm-99.839 3.58v7.955h-4.375v-21.877h8.353a6.148 6.148 0 0 1 6.364 5.569 7.207 7.207 0 0 1-4.773 7.955 6.769 6.769 0 0 1-2.784.4zm0-3.58h3.978c.4 0 .4 0 .8-.4a3.845 3.845 0 0 0 0-5.569l-.4-.4c-1.193-.4-2.784 0-3.978-.4a40.9 40.9 0 0 0-.4 6.769zm27.447-9.944c0 1.193-.4 2.387-.4 3.58h-7.556v5.171h5.966v3.58h-5.966v5.969h8.353v3.978h-12.728v-21.878c3.978-.4 7.955-.4 12.331-.4zm18.296 17.501c.8.8 1.193 1.989 1.989 2.784a7.579 7.579 0 0 1-3.973 1.989 9.7 9.7 0 0 1-4.773 0 9.018 9.018 0 0 1-6.364-5.569 14.5 14.5 0 0 1 .4-11.535c2.387-5.171 7.955-6.364 12.728-4.375.4 0 .8.4 1.193.8a16.84 16.84 0 0 1-1.989 2.784 7.375 7.375 0 0 0-2.784-.8 4.558 4.558 0 0 0-5.171 2.784 15.461 15.461 0 0 0-.8 5.966 6.769 6.769 0 0 0 .4 2.784c.8 4.773 5.171 4.773 7.955 3.182.792-.794.792-.794 1.189-.794zm15.513 4.376h-4.375v-18.3h-5.171v-3.577h15.911c-.4 1.193-.4 2.387-.8 3.58h-5.167c-.398 5.966-.398 11.933-.398 18.297z"/></svg>